<?xml version="1.0" encoding="UTF-8" standalone="no"?>
<!DOCTYPE svg PUBLIC "-//W3C//DTD SVG 1.1//EN"
 "http://www.w3.org/Graphics/SVG/1.1/DTD/svg11.dtd">
<!-- Generated by graphviz version 2.38.0 (20140413.2041)
 -->
<!-- Title: controllers_diagram Pages: 1 -->
<svg width="542pt" height="567pt"
 viewBox="0.00 0.00 542.00 566.50" xmlns="http://www.w3.org/2000/svg" xmlns:xlink="http://www.w3.org/1999/xlink">
<g id="graph0" class="graph" transform="scale(1 1) rotate(0) translate(199.5 323)">
<title>controllers_diagram</title>
<polygon fill="none" stroke="none" points="-199.5,243.5 -199.5,-323 342.5,-323 342.5,243.5 -199.5,243.5"/>
<!-- _diagram_info -->
<g id="node1" class="node"><title>_diagram_info</title>
<text text-anchor="start" x="-112" y="-18.6" font-family="Times,serif" font-size="13.00">Controllers diagram</text>
<text text-anchor="start" x="-112" y="-4.6" font-family="Times,serif" font-size="13.00">Date: Sep 22 2015 &#45; 07:50</text>
<text text-anchor="start" x="-112" y="9.4" font-family="Times,serif" font-size="13.00">Migration version: 20150922113109</text>
<text text-anchor="start" x="-112" y="23.4" font-family="Times,serif" font-size="13.00">Generated by RailRoady 1.3.1</text>
<text text-anchor="start" x="-112" y="37.4" font-family="Times,serif" font-size="13.00">http://railroady.prestonlee.com</text>
</g>
<!-- UserController -->
<g id="node2" class="node"><title>UserController</title>
<path fill="none" stroke="black" d="M72,-61C72,-61 146,-61 146,-61 152,-61 158,-67 158,-73 158,-73 158,-247 158,-247 158,-253 152,-259 146,-259 146,-259 72,-259 72,-259 66,-259 60,-253 60,-247 60,-247 60,-73 60,-73 60,-67 66,-61 72,-61"/>
<text text-anchor="middle" x="109" y="-243.8" font-family="Times,serif" font-size="14.00">UserController</text>
<polyline fill="none" stroke="black" points="60,-236 158,-236 "/>
<text text-anchor="start" x="68" y="-220.8" font-family="Times,serif" font-size="14.00">admin</text>
<text text-anchor="start" x="68" y="-205.8" font-family="Times,serif" font-size="14.00">auth_user</text>
<text text-anchor="start" x="68" y="-190.8" font-family="Times,serif" font-size="14.00">create</text>
<text text-anchor="start" x="68" y="-175.8" font-family="Times,serif" font-size="14.00">delete</text>
<text text-anchor="start" x="68" y="-160.8" font-family="Times,serif" font-size="14.00">list_all</text>
<text text-anchor="start" x="68" y="-145.8" font-family="Times,serif" font-size="14.00">login</text>
<text text-anchor="start" x="68" y="-130.8" font-family="Times,serif" font-size="14.00">logout</text>
<text text-anchor="start" x="68" y="-115.8" font-family="Times,serif" font-size="14.00">modify</text>
<polyline fill="none" stroke="black" points="60,-108 158,-108 "/>
<polyline fill="none" stroke="black" points="60,-84 158,-84 "/>
<text text-anchor="start" x="68" y="-68.8" font-family="Times,serif" font-size="14.00">_layout</text>
</g>
<!-- AssetCategoryController -->
<g id="node3" class="node"><title>AssetCategoryController</title>
<path fill="none" stroke="black" d="M132,119C132,119 260,119 260,119 266,119 272,113 272,107 272,107 272,-7 272,-7 272,-13 266,-19 260,-19 260,-19 132,-19 132,-19 126,-19 120,-13 120,-7 120,-7 120,107 120,107 120,113 126,119 132,119"/>
<text text-anchor="middle" x="196" y="-3.8" font-family="Times,serif" font-size="14.00">AssetCategoryController</text>
<polyline fill="none" stroke="black" points="120,4 272,4 "/>
<text text-anchor="start" x="128" y="19.2" font-family="Times,serif" font-size="14.00">create</text>
<text text-anchor="start" x="128" y="34.2" font-family="Times,serif" font-size="14.00">delete</text>
<text text-anchor="start" x="128" y="49.2" font-family="Times,serif" font-size="14.00">list_all</text>
<text text-anchor="start" x="128" y="64.2" font-family="Times,serif" font-size="14.00">modify</text>
<polyline fill="none" stroke="black" points="120,72 272,72 "/>
<polyline fill="none" stroke="black" points="120,96 272,96 "/>
<text text-anchor="start" x="128" y="111.2" font-family="Times,serif" font-size="14.00">_layout</text>
</g>
<!-- HistoryController -->
<g id="node4" class="node"><title>HistoryController</title>
<path fill="none" stroke="black" d="M237.5,-225.5C237.5,-225.5 326.5,-225.5 326.5,-225.5 332.5,-225.5 338.5,-231.5 338.5,-237.5 338.5,-237.5 338.5,-306.5 338.5,-306.5 338.5,-312.5 332.5,-318.5 326.5,-318.5 326.5,-318.5 237.5,-318.5 237.5,-318.5 231.5,-318.5 225.5,-312.5 225.5,-306.5 225.5,-306.5 225.5,-237.5 225.5,-237.5 225.5,-231.5 231.5,-225.5 237.5,-225.5"/>
<text text-anchor="middle" x="282" y="-303.3" font-family="Times,serif" font-size="14.00">HistoryController</text>
<polyline fill="none" stroke="black" points="225.5,-295.5 338.5,-295.5 "/>
<text text-anchor="start" x="233.5" y="-280.3" font-family="Times,serif" font-size="14.00">list_all</text>
<polyline fill="none" stroke="black" points="225.5,-272.5 338.5,-272.5 "/>
<polyline fill="none" stroke="black" points="225.5,-248.5 338.5,-248.5 "/>
<text text-anchor="start" x="233.5" y="-233.3" font-family="Times,serif" font-size="14.00">_layout</text>
</g>
<!-- EmployeeController -->
<g id="node5" class="node"><title>EmployeeController</title>
<path fill="none" stroke="black" d="M-48,164C-48,164 56,164 56,164 62,164 68,158 68,152 68,152 68,82 68,82 68,76 62,70 56,70 56,70 -48,70 -48,70 -54,70 -60,76 -60,82 -60,82 -60,152 -60,152 -60,158 -54,164 -48,164"/>
<text text-anchor="middle" x="4" y="85.2" font-family="Times,serif" font-size="14.00">EmployeeController</text>
<polyline fill="none" stroke="black" points="-60,93 68,93 "/>
<polyline fill="none" stroke="black" points="-60,117 68,117 "/>
<polyline fill="none" stroke="black" points="-60,141 68,141 "/>
<text text-anchor="start" x="-52" y="156.2" font-family="Times,serif" font-size="14.00">_layout</text>
</g>
<!-- GroupController -->
<g id="node6" class="node"><title>GroupController</title>
<path fill="none" stroke="black" d="M-183.5,194.5C-183.5,194.5 -100.5,194.5 -100.5,194.5 -94.5,194.5 -88.5,188.5 -88.5,182.5 -88.5,182.5 -88.5,83.5 -88.5,83.5 -88.5,77.5 -94.5,71.5 -100.5,71.5 -100.5,71.5 -183.5,71.5 -183.5,71.5 -189.5,71.5 -195.5,77.5 -195.5,83.5 -195.5,83.5 -195.5,182.5 -195.5,182.5 -195.5,188.5 -189.5,194.5 -183.5,194.5"/>
<text text-anchor="middle" x="-142" y="86.7" font-family="Times,serif" font-size="14.00">GroupController</text>
<polyline fill="none" stroke="black" points="-195.5,94.5 -88.5,94.5 "/>
<text text-anchor="start" x="-187.5" y="109.7" font-family="Times,serif" font-size="14.00">create</text>
<text text-anchor="start" x="-187.5" y="124.7" font-family="Times,serif" font-size="14.00">delete</text>
<text text-anchor="start" x="-187.5" y="139.7" font-family="Times,serif" font-size="14.00">modify</text>
<polyline fill="none" stroke="black" points="-195.5,147.5 -88.5,147.5 "/>
<polyline fill="none" stroke="black" points="-195.5,171.5 -88.5,171.5 "/>
<text text-anchor="start" x="-187.5" y="186.7" font-family="Times,serif" font-size="14.00">_layout</text>
</g>
<!-- AssetController -->
<g id="node7" class="node"><title>AssetController</title>
<path fill="none" stroke="black" d="M207,-45.5C207,-45.5 285,-45.5 285,-45.5 291,-45.5 297,-51.5 297,-57.5 297,-57.5 297,-186.5 297,-186.5 297,-192.5 291,-198.5 285,-198.5 285,-198.5 207,-198.5 207,-198.5 201,-198.5 195,-192.5 195,-186.5 195,-186.5 195,-57.5 195,-57.5 195,-51.5 201,-45.5 207,-45.5"/>
<text text-anchor="middle" x="246" y="-183.3" font-family="Times,serif" font-size="14.00">AssetController</text>
<polyline fill="none" stroke="black" points="195,-175.5 297,-175.5 "/>
<text text-anchor="start" x="203" y="-160.3" font-family="Times,serif" font-size="14.00">create</text>
<text text-anchor="start" x="203" y="-145.3" font-family="Times,serif" font-size="14.00">delete</text>
<text text-anchor="start" x="203" y="-130.3" font-family="Times,serif" font-size="14.00">list_all</text>
<text text-anchor="start" x="203" y="-115.3" font-family="Times,serif" font-size="14.00">modify</text>
<text text-anchor="start" x="203" y="-100.3" font-family="Times,serif" font-size="14.00">new</text>
<polyline fill="none" stroke="black" points="195,-92.5 297,-92.5 "/>
<polyline fill="none" stroke="black" points="195,-68.5 297,-68.5 "/>
<text text-anchor="start" x="203" y="-53.3" font-family="Times,serif" font-size="14.00">_layout</text>
</g>
<!-- ApplicationController -->
<g id="node8" class="node"><title>ApplicationController</title>
<path fill="none" stroke="black" d="M-93,-105.5C-93,-105.5 19,-105.5 19,-105.5 25,-105.5 31,-111.5 31,-117.5 31,-117.5 31,-216.5 31,-216.5 31,-222.5 25,-228.5 19,-228.5 19,-228.5 -93,-228.5 -93,-228.5 -99,-228.5 -105,-222.5 -105,-216.5 -105,-216.5 -105,-117.5 -105,-117.5 -105,-111.5 -99,-105.5 -93,-105.5"/>
<text text-anchor="middle" x="-37" y="-213.3" font-family="Times,serif" font-size="14.00">ApplicationController</text>
<polyline fill="none" stroke="black" points="-105,-205.5 31,-205.5 "/>
<text text-anchor="start" x="-97" y="-190.3" font-family="Times,serif" font-size="14.00">dashboardaction</text>
<text text-anchor="start" x="-97" y="-175.3" font-family="Times,serif" font-size="14.00">set_cache_buster</text>
<text text-anchor="start" x="-97" y="-160.3" font-family="Times,serif" font-size="14.00">set_log_action</text>
<polyline fill="none" stroke="black" points="-105,-152.5 31,-152.5 "/>
<polyline fill="none" stroke="black" points="-105,-128.5 31,-128.5 "/>
<text text-anchor="start" x="-97" y="-113.3" font-family="Times,serif" font-size="14.00">_layout</text>
</g>
<!-- ClientController -->
<g id="node9" class="node"><title>ClientController</title>
<path fill="none" stroke="black" d="M117.5,239C117.5,239 198.5,239 198.5,239 204.5,239 210.5,233 210.5,227 210.5,227 210.5,157 210.5,157 210.5,151 204.5,145 198.5,145 198.5,145 117.5,145 117.5,145 111.5,145 105.5,151 105.5,157 105.5,157 105.5,227 105.5,227 105.5,233 111.5,239 117.5,239"/>
<text text-anchor="middle" x="158" y="160.2" font-family="Times,serif" font-size="14.00">ClientController</text>
<polyline fill="none" stroke="black" points="105.5,168 210.5,168 "/>
<polyline fill="none" stroke="black" points="105.5,192 210.5,192 "/>
<polyline fill="none" stroke="black" points="105.5,216 210.5,216 "/>
<text text-anchor="start" x="113.5" y="231.2" font-family="Times,serif" font-size="14.00">_layout</text>
</g>
</g>
</svg>
