<?xml version="1.0" encoding="UTF-8" standalone="no"?>
<!DOCTYPE svg PUBLIC "-//W3C//DTD SVG 1.1//EN"
 "http://www.w3.org/Graphics/SVG/1.1/DTD/svg11.dtd">
<!-- Generated by graphviz version 2.38.0 (20140413.2041)
 -->
<!-- Title: models_diagram Pages: 1 -->
<svg width="685pt" height="230pt"
 viewBox="0.00 0.00 685.45 230.00" xmlns="http://www.w3.org/2000/svg" xmlns:xlink="http://www.w3.org/1999/xlink">
<g id="graph0" class="graph" transform="scale(1 1) rotate(0) translate(4 226)">
<title>models_diagram</title>
<polygon fill="none" stroke="none" points="-4,4 -4,-226 681.447,-226 681.447,4 -4,4"/>
<!-- _diagram_info -->
<g id="node1" class="node"><title>_diagram_info</title>
<text text-anchor="start" x="8" y="-207.6" font-family="Times,serif" font-size="13.00">Models diagram</text>
<text text-anchor="start" x="8" y="-193.6" font-family="Times,serif" font-size="13.00">Date: Sep 22 2015 &#45; 07:50</text>
<text text-anchor="start" x="8" y="-179.6" font-family="Times,serif" font-size="13.00">Migration version: 20150922113109</text>
<text text-anchor="start" x="8" y="-165.6" font-family="Times,serif" font-size="13.00">Generated by RailRoady 1.3.1</text>
<text text-anchor="start" x="8" y="-151.6" font-family="Times,serif" font-size="13.00">http://railroady.prestonlee.com</text>
</g>
<!-- AssetCategory -->
<g id="node2" class="node"><title>AssetCategory</title>
<ellipse fill="none" stroke="black" cx="294" cy="-183" rx="62.2891" ry="18"/>
<text text-anchor="middle" x="294" y="-179.3" font-family="Times,serif" font-size="14.00">AssetCategory</text>
</g>
<!-- Asset -->
<g id="node4" class="node"><title>Asset</title>
<ellipse fill="none" stroke="black" cx="294" cy="-90" rx="30.5947" ry="18"/>
<text text-anchor="middle" x="294" y="-86.3" font-family="Times,serif" font-size="14.00">Asset</text>
</g>
<!-- AssetCategory&#45;&gt;Asset -->
<g id="edge1" class="edge"><title>AssetCategory&#45;&gt;Asset</title>
<path fill="none" stroke="#e62ea2" d="M294,-156.729C294,-144.725 294,-130.362 294,-118.129"/>
<ellipse fill="none" stroke="#e62ea2" cx="294" cy="-160.884" rx="4" ry="4"/>
<polygon fill="#e62ea2" stroke="#e62ea2" points="294,-118.04 298.5,-108.04 294,-113.04 294,-108.04 294,-108.04 294,-108.04 294,-113.04 289.5,-108.04 294,-118.04 294,-118.04"/>
</g>
<!-- History -->
<g id="node3" class="node"><title>History</title>
<ellipse fill="none" stroke="black" cx="380" cy="-90" rx="37.0935" ry="18"/>
<text text-anchor="middle" x="380" y="-86.3" font-family="Times,serif" font-size="14.00">History</text>
</g>
<!-- User -->
<g id="node5" class="node"><title>User</title>
<ellipse fill="none" stroke="black" cx="477" cy="-18" rx="27.0966" ry="18"/>
<text text-anchor="middle" x="477" y="-14.3" font-family="Times,serif" font-size="14.00">User</text>
</g>
<!-- History&#45;&gt;User -->
<g id="edge2" class="edge"><title>History&#45;&gt;User</title>
<path fill="none" stroke="#fbd4eb" d="M408.305,-68.5735C421.8,-58.8353 437.833,-47.2645 451.015,-37.7519"/>
<polygon fill="#fbd4eb" stroke="#fbd4eb" points="408.207,-68.6441 397.465,-70.8469 404.153,-71.57 400.098,-74.496 400.098,-74.496 400.098,-74.496 404.153,-71.57 402.732,-78.145 408.207,-68.6441 408.207,-68.6441"/>
<polygon fill="#fbd4eb" stroke="#fbd4eb" points="451.101,-37.6897 461.844,-35.4869 455.156,-34.7638 459.21,-31.8378 459.21,-31.8378 459.21,-31.8378 455.156,-34.7638 456.577,-28.1887 451.101,-37.6897 451.101,-37.6897"/>
</g>
<!-- Template -->
<g id="node6" class="node"><title>Template</title>
<ellipse fill="none" stroke="black" cx="479" cy="-90" rx="44.393" ry="18"/>
<text text-anchor="middle" x="479" y="-86.3" font-family="Times,serif" font-size="14.00">Template</text>
</g>
<!-- Grouptemplate -->
<g id="node7" class="node"><title>Grouptemplate</title>
<ellipse fill="none" stroke="black" cx="527" cy="-183" rx="63.8893" ry="18"/>
<text text-anchor="middle" x="527" y="-179.3" font-family="Times,serif" font-size="14.00">Grouptemplate</text>
</g>
<!-- Grouptemplate&#45;&gt;Template -->
<g id="edge3" class="edge"><title>Grouptemplate&#45;&gt;Template</title>
<path fill="none" stroke="#52b495" d="M514.097,-157.538C507.471,-144.976 499.398,-129.672 492.666,-116.909"/>
<ellipse fill="none" stroke="#52b495" cx="516.105" cy="-161.346" rx="4.00002" ry="4.00002"/>
<polygon fill="#52b495" stroke="#52b495" points="492.491,-116.577 491.806,-105.633 490.159,-112.155 487.826,-107.732 487.826,-107.732 487.826,-107.732 490.159,-112.155 483.846,-109.832 492.491,-116.577 492.491,-116.577"/>
</g>
<!-- Group -->
<g id="node9" class="node"><title>Group</title>
<ellipse fill="none" stroke="black" cx="574" cy="-90" rx="33.2948" ry="18"/>
<text text-anchor="middle" x="574" y="-86.3" font-family="Times,serif" font-size="14.00">Group</text>
</g>
<!-- Grouptemplate&#45;&gt;Group -->
<g id="edge4" class="edge"><title>Grouptemplate&#45;&gt;Group</title>
<path fill="none" stroke="#9935a3" d="M539.659,-157.489C546.192,-144.842 554.155,-129.423 560.768,-116.619"/>
<ellipse fill="none" stroke="#9935a3" cx="537.676" cy="-161.33" rx="4.00002" ry="4.00002"/>
<polygon fill="#9935a3" stroke="#9935a3" points="560.927,-116.312 569.514,-109.492 563.221,-111.869 565.516,-107.427 565.516,-107.427 565.516,-107.427 563.221,-111.869 561.518,-105.362 560.927,-116.312 560.927,-116.312"/>
</g>
<!-- Person -->
<g id="node8" class="node"><title>Person</title>
<ellipse fill="none" stroke="black" cx="643" cy="-183" rx="34.394" ry="18"/>
<text text-anchor="middle" x="643" y="-179.3" font-family="Times,serif" font-size="14.00">Person</text>
</g>
<!-- Group&#45;&gt;User -->
<g id="edge5" class="edge"><title>Group&#45;&gt;User</title>
<path fill="none" stroke="#60e44a" d="M547.945,-70.1978C534.022,-60.15 516.932,-47.8171 503.015,-37.7737"/>
<ellipse fill="none" stroke="#60e44a" cx="551.592" cy="-72.8295" rx="4.00002" ry="4.00002"/>
<polygon fill="#60e44a" stroke="#60e44a" points="502.925,-37.7088 497.449,-28.2079 498.871,-34.7829 494.816,-31.8569 494.816,-31.8569 494.816,-31.8569 498.871,-34.7829 492.183,-35.506 502.925,-37.7088 502.925,-37.7088"/>
</g>
</g>
</svg>
