<?xml version="1.0" encoding="UTF-8" standalone="no"?>
<!DOCTYPE svg PUBLIC "-//W3C//DTD SVG 1.1//EN"
 "http://www.w3.org/Graphics/SVG/1.1/DTD/svg11.dtd">
<!-- Generated by graphviz version 2.38.0 (20140413.2041)
 -->
<!-- Title: models_diagram Pages: 1 -->
<svg width="964pt" height="521pt"
 viewBox="0.00 0.00 963.50 521.00" xmlns="http://www.w3.org/2000/svg" xmlns:xlink="http://www.w3.org/1999/xlink">
<g id="graph0" class="graph" transform="scale(1 1) rotate(0) translate(4 517)">
<title>models_diagram</title>
<polygon fill="none" stroke="none" points="-4,4 -4,-517 959.5,-517 959.5,4 -4,4"/>
<!-- _diagram_info -->
<g id="node1" class="node"><title>_diagram_info</title>
<text text-anchor="start" x="8" y="-454.1" font-family="Times,serif" font-size="13.00">Models diagram</text>
<text text-anchor="start" x="8" y="-440.1" font-family="Times,serif" font-size="13.00">Date: Sep 22 2015 &#45; 07:50</text>
<text text-anchor="start" x="8" y="-426.1" font-family="Times,serif" font-size="13.00">Migration version: 20150922113109</text>
<text text-anchor="start" x="8" y="-412.1" font-family="Times,serif" font-size="13.00">Generated by RailRoady 1.3.1</text>
<text text-anchor="start" x="8" y="-398.1" font-family="Times,serif" font-size="13.00">http://railroady.prestonlee.com</text>
</g>
<!-- AssetCategory -->
<g id="node2" class="node"><title>AssetCategory</title>
<path fill="none" stroke="black" d="M244.5,-384C244.5,-384 421.5,-384 421.5,-384 427.5,-384 433.5,-390 433.5,-396 433.5,-396 433.5,-463 433.5,-463 433.5,-469 427.5,-475 421.5,-475 421.5,-475 244.5,-475 244.5,-475 238.5,-475 232.5,-469 232.5,-463 232.5,-463 232.5,-396 232.5,-396 232.5,-390 238.5,-384 244.5,-384"/>
<text text-anchor="middle" x="333" y="-459.8" font-family="Times,serif" font-size="14.00">AssetCategory</text>
<polyline fill="none" stroke="black" points="232.5,-452 433.5,-452 "/>
<text text-anchor="start" x="240.5" y="-436.8" font-family="Times,serif" font-size="14.00">id :integer</text>
<text text-anchor="start" x="240.5" y="-421.8" font-family="Times,serif" font-size="14.00">asset_category_description :string</text>
<text text-anchor="start" x="240.5" y="-406.8" font-family="Times,serif" font-size="14.00">created_at :datetime</text>
<text text-anchor="start" x="240.5" y="-391.8" font-family="Times,serif" font-size="14.00">updated_at :datetime</text>
</g>
<!-- Asset -->
<g id="node4" class="node"><title>Asset</title>
<path fill="none" stroke="black" d="M271,-173.5C271,-173.5 395,-173.5 395,-173.5 401,-173.5 407,-179.5 407,-185.5 407,-185.5 407,-297.5 407,-297.5 407,-303.5 401,-309.5 395,-309.5 395,-309.5 271,-309.5 271,-309.5 265,-309.5 259,-303.5 259,-297.5 259,-297.5 259,-185.5 259,-185.5 259,-179.5 265,-173.5 271,-173.5"/>
<text text-anchor="middle" x="333" y="-294.3" font-family="Times,serif" font-size="14.00">Asset</text>
<polyline fill="none" stroke="black" points="259,-286.5 407,-286.5 "/>
<text text-anchor="start" x="267" y="-271.3" font-family="Times,serif" font-size="14.00">id :integer</text>
<text text-anchor="start" x="267" y="-256.3" font-family="Times,serif" font-size="14.00">asset_name :string</text>
<text text-anchor="start" x="267" y="-241.3" font-family="Times,serif" font-size="14.00">asset_description :string</text>
<text text-anchor="start" x="267" y="-226.3" font-family="Times,serif" font-size="14.00">asset_price_buy :float</text>
<text text-anchor="start" x="267" y="-211.3" font-family="Times,serif" font-size="14.00">category_id :integer</text>
<text text-anchor="start" x="267" y="-196.3" font-family="Times,serif" font-size="14.00">created_at :datetime</text>
<text text-anchor="start" x="267" y="-181.3" font-family="Times,serif" font-size="14.00">updated_at :datetime</text>
</g>
<!-- AssetCategory&#45;&gt;Asset -->
<g id="edge1" class="edge"><title>AssetCategory&#45;&gt;Asset</title>
<path fill="none" stroke="#356563" d="M333,-375.928C333,-358.46 333,-338.63 333,-319.699"/>
<ellipse fill="none" stroke="#356563" cx="333" cy="-379.948" rx="4" ry="4"/>
<polygon fill="#356563" stroke="#356563" points="333,-319.598 337.5,-309.598 333,-314.598 333,-309.598 333,-309.598 333,-309.598 333,-314.598 328.5,-309.598 333,-319.598 333,-319.598"/>
</g>
<!-- History -->
<g id="node3" class="node"><title>History</title>
<path fill="none" stroke="black" d="M437.5,-181C437.5,-181 544.5,-181 544.5,-181 550.5,-181 556.5,-187 556.5,-193 556.5,-193 556.5,-290 556.5,-290 556.5,-296 550.5,-302 544.5,-302 544.5,-302 437.5,-302 437.5,-302 431.5,-302 425.5,-296 425.5,-290 425.5,-290 425.5,-193 425.5,-193 425.5,-187 431.5,-181 437.5,-181"/>
<text text-anchor="middle" x="491" y="-286.8" font-family="Times,serif" font-size="14.00">History</text>
<polyline fill="none" stroke="black" points="425.5,-279 556.5,-279 "/>
<text text-anchor="start" x="433.5" y="-263.8" font-family="Times,serif" font-size="14.00">id :integer</text>
<text text-anchor="start" x="433.5" y="-248.8" font-family="Times,serif" font-size="14.00">user_id :integer</text>
<text text-anchor="start" x="433.5" y="-233.8" font-family="Times,serif" font-size="14.00">action :string</text>
<text text-anchor="start" x="433.5" y="-218.8" font-family="Times,serif" font-size="14.00">view :string</text>
<text text-anchor="start" x="433.5" y="-203.8" font-family="Times,serif" font-size="14.00">created_at :datetime</text>
<text text-anchor="start" x="433.5" y="-188.8" font-family="Times,serif" font-size="14.00">updated_at :datetime</text>
</g>
<!-- User -->
<g id="node5" class="node"><title>User</title>
<path fill="none" stroke="black" d="M583.5,-0.5C583.5,-0.5 704.5,-0.5 704.5,-0.5 710.5,-0.5 716.5,-6.5 716.5,-12.5 716.5,-12.5 716.5,-124.5 716.5,-124.5 716.5,-130.5 710.5,-136.5 704.5,-136.5 704.5,-136.5 583.5,-136.5 583.5,-136.5 577.5,-136.5 571.5,-130.5 571.5,-124.5 571.5,-124.5 571.5,-12.5 571.5,-12.5 571.5,-6.5 577.5,-0.5 583.5,-0.5"/>
<text text-anchor="middle" x="644" y="-121.3" font-family="Times,serif" font-size="14.00">User</text>
<polyline fill="none" stroke="black" points="571.5,-113.5 716.5,-113.5 "/>
<text text-anchor="start" x="579.5" y="-98.3" font-family="Times,serif" font-size="14.00">id :integer</text>
<text text-anchor="start" x="579.5" y="-83.3" font-family="Times,serif" font-size="14.00">username :string</text>
<text text-anchor="start" x="579.5" y="-68.3" font-family="Times,serif" font-size="14.00">password_digest :string</text>
<text text-anchor="start" x="579.5" y="-53.3" font-family="Times,serif" font-size="14.00">email :string</text>
<text text-anchor="start" x="579.5" y="-38.3" font-family="Times,serif" font-size="14.00">group_id :integer</text>
<text text-anchor="start" x="579.5" y="-23.3" font-family="Times,serif" font-size="14.00">created_at :datetime</text>
<text text-anchor="start" x="579.5" y="-8.3" font-family="Times,serif" font-size="14.00">updated_at :datetime</text>
</g>
<!-- History&#45;&gt;User -->
<g id="edge2" class="edge"><title>History&#45;&gt;User</title>
<path fill="none" stroke="#1c7f10" d="M551.469,-172.917C559.909,-163.484 568.622,-153.747 577.171,-144.192"/>
<polygon fill="#1c7f10" stroke="#1c7f10" points="551.18,-173.24 541.158,-177.692 547.846,-176.966 544.512,-180.692 544.512,-180.692 544.512,-180.692 547.846,-176.966 547.866,-183.693 551.18,-173.24 551.18,-173.24"/>
<polygon fill="#1c7f10" stroke="#1c7f10" points="577.315,-144.03 587.337,-139.578 580.649,-140.304 583.983,-136.578 583.983,-136.578 583.983,-136.578 580.649,-140.304 580.63,-133.577 577.315,-144.03 577.315,-144.03"/>
</g>
<!-- Template -->
<g id="node6" class="node"><title>Template</title>
<path fill="none" stroke="black" d="M586.5,-196C586.5,-196 701.5,-196 701.5,-196 707.5,-196 713.5,-202 713.5,-208 713.5,-208 713.5,-275 713.5,-275 713.5,-281 707.5,-287 701.5,-287 701.5,-287 586.5,-287 586.5,-287 580.5,-287 574.5,-281 574.5,-275 574.5,-275 574.5,-208 574.5,-208 574.5,-202 580.5,-196 586.5,-196"/>
<text text-anchor="middle" x="644" y="-271.8" font-family="Times,serif" font-size="14.00">Template</text>
<polyline fill="none" stroke="black" points="574.5,-264 713.5,-264 "/>
<text text-anchor="start" x="582.5" y="-248.8" font-family="Times,serif" font-size="14.00">id :integer</text>
<text text-anchor="start" x="582.5" y="-233.8" font-family="Times,serif" font-size="14.00">template_name :string</text>
<text text-anchor="start" x="582.5" y="-218.8" font-family="Times,serif" font-size="14.00">created_at :datetime</text>
<text text-anchor="start" x="582.5" y="-203.8" font-family="Times,serif" font-size="14.00">updated_at :datetime</text>
</g>
<!-- Grouptemplate -->
<g id="node7" class="node"><title>Grouptemplate</title>
<path fill="none" stroke="black" d="M645.5,-346.5C645.5,-346.5 794.5,-346.5 794.5,-346.5 800.5,-346.5 806.5,-352.5 806.5,-358.5 806.5,-358.5 806.5,-500.5 806.5,-500.5 806.5,-506.5 800.5,-512.5 794.5,-512.5 794.5,-512.5 645.5,-512.5 645.5,-512.5 639.5,-512.5 633.5,-506.5 633.5,-500.5 633.5,-500.5 633.5,-358.5 633.5,-358.5 633.5,-352.5 639.5,-346.5 645.5,-346.5"/>
<text text-anchor="middle" x="720" y="-497.3" font-family="Times,serif" font-size="14.00">Grouptemplate</text>
<polyline fill="none" stroke="black" points="633.5,-489.5 806.5,-489.5 "/>
<text text-anchor="start" x="641.5" y="-474.3" font-family="Times,serif" font-size="14.00">id :integer</text>
<text text-anchor="start" x="641.5" y="-459.3" font-family="Times,serif" font-size="14.00">templates_id :integer</text>
<text text-anchor="start" x="641.5" y="-444.3" font-family="Times,serif" font-size="14.00">groups_id :integer</text>
<text text-anchor="start" x="641.5" y="-429.3" font-family="Times,serif" font-size="14.00">permission_write :boolean</text>
<text text-anchor="start" x="641.5" y="-414.3" font-family="Times,serif" font-size="14.00">permission_modify :boolean</text>
<text text-anchor="start" x="641.5" y="-399.3" font-family="Times,serif" font-size="14.00">permission_read :boolean</text>
<text text-anchor="start" x="641.5" y="-384.3" font-family="Times,serif" font-size="14.00">permission_delete :boolean</text>
<text text-anchor="start" x="641.5" y="-369.3" font-family="Times,serif" font-size="14.00">created_at :datetime</text>
<text text-anchor="start" x="641.5" y="-354.3" font-family="Times,serif" font-size="14.00">updated_at :datetime</text>
</g>
<!-- Grouptemplate&#45;&gt;Template -->
<g id="edge3" class="edge"><title>Grouptemplate&#45;&gt;Template</title>
<path fill="none" stroke="#6fe325" d="M683.317,-338.724C677.433,-324.322 671.506,-309.818 666.103,-296.594"/>
<ellipse fill="none" stroke="#6fe325" cx="684.931" cy="-342.673" rx="4.00001" ry="4.00001"/>
<polygon fill="#6fe325" stroke="#6fe325" points="666.051,-296.468 666.435,-285.508 664.16,-291.839 662.269,-287.211 662.269,-287.211 662.269,-287.211 664.16,-291.839 658.103,-288.913 666.051,-296.468 666.051,-296.468"/>
</g>
<!-- Group -->
<g id="node9" class="node"><title>Group</title>
<path fill="none" stroke="black" d="M743.5,-196C743.5,-196 850.5,-196 850.5,-196 856.5,-196 862.5,-202 862.5,-208 862.5,-208 862.5,-275 862.5,-275 862.5,-281 856.5,-287 850.5,-287 850.5,-287 743.5,-287 743.5,-287 737.5,-287 731.5,-281 731.5,-275 731.5,-275 731.5,-208 731.5,-208 731.5,-202 737.5,-196 743.5,-196"/>
<text text-anchor="middle" x="797" y="-271.8" font-family="Times,serif" font-size="14.00">Group</text>
<polyline fill="none" stroke="black" points="731.5,-264 862.5,-264 "/>
<text text-anchor="start" x="739.5" y="-248.8" font-family="Times,serif" font-size="14.00">id :integer</text>
<text text-anchor="start" x="739.5" y="-233.8" font-family="Times,serif" font-size="14.00">group_name :string</text>
<text text-anchor="start" x="739.5" y="-218.8" font-family="Times,serif" font-size="14.00">created_at :datetime</text>
<text text-anchor="start" x="739.5" y="-203.8" font-family="Times,serif" font-size="14.00">updated_at :datetime</text>
</g>
<!-- Grouptemplate&#45;&gt;Group -->
<g id="edge4" class="edge"><title>Grouptemplate&#45;&gt;Group</title>
<path fill="none" stroke="#f49bef" d="M757.165,-338.724C763.127,-324.322 769.132,-309.818 774.606,-296.594"/>
<ellipse fill="none" stroke="#f49bef" cx="755.527" cy="-342.68" rx="4.00001" ry="4.00001"/>
<polygon fill="#f49bef" stroke="#f49bef" points="774.666,-296.45 782.649,-288.932 776.578,-291.83 778.491,-287.211 778.491,-287.211 778.491,-287.211 776.578,-291.83 774.333,-285.489 774.666,-296.45 774.666,-296.45"/>
</g>
<!-- Person -->
<g id="node8" class="node"><title>Person</title>
<path fill="none" stroke="black" d="M836.5,-391.5C836.5,-391.5 943.5,-391.5 943.5,-391.5 949.5,-391.5 955.5,-397.5 955.5,-403.5 955.5,-403.5 955.5,-455.5 955.5,-455.5 955.5,-461.5 949.5,-467.5 943.5,-467.5 943.5,-467.5 836.5,-467.5 836.5,-467.5 830.5,-467.5 824.5,-461.5 824.5,-455.5 824.5,-455.5 824.5,-403.5 824.5,-403.5 824.5,-397.5 830.5,-391.5 836.5,-391.5"/>
<text text-anchor="middle" x="890" y="-452.3" font-family="Times,serif" font-size="14.00">Person</text>
<polyline fill="none" stroke="black" points="824.5,-444.5 955.5,-444.5 "/>
<text text-anchor="start" x="832.5" y="-429.3" font-family="Times,serif" font-size="14.00">id :integer</text>
<text text-anchor="start" x="832.5" y="-414.3" font-family="Times,serif" font-size="14.00">created_at :datetime</text>
<text text-anchor="start" x="832.5" y="-399.3" font-family="Times,serif" font-size="14.00">updated_at :datetime</text>
</g>
<!-- Group&#45;&gt;User -->
<g id="edge5" class="edge"><title>Group&#45;&gt;User</title>
<path fill="none" stroke="#0b41a4" d="M751.419,-189.556C738.654,-175.29 724.508,-159.48 710.786,-144.144"/>
<ellipse fill="none" stroke="#0b41a4" cx="754.134" cy="-192.591" rx="4.00002" ry="4.00002"/>
<polygon fill="#0b41a4" stroke="#0b41a4" points="710.76,-144.114 707.446,-133.661 707.426,-140.388 704.092,-136.662 704.092,-136.662 704.092,-136.662 707.426,-140.388 700.739,-139.663 710.76,-144.114 710.76,-144.114"/>
</g>
</g>
</svg>
